<svg height="40" viewBox="0 0 40 40" width="40" xmlns="http://www.w3.org/2000/svg" xmlns:xlink="http://www.w3.org/1999/xlink"><mask id="a" fill="#fff"><path d="m20 0c11.04 0 20 8.96 20 20s-8.96 20-20 20-20-8.96-20-20 8.96-20 20-20zm0 8.33333333c-2.7666667 0-5 2.23333337-5 4.99999997 0 2.7666667 2.2333333 5 5 5s5-2.2333333 5-5c0-2.7666666-2.2333333-4.99999997-5-4.99999997zm0 23.66666667c4.1666667 0 7.85-2.1333333 10-5.3666667-.05-3.3166666-6.6833333-5.1333333-10-5.1333333-3.3333333 0-9.95 1.8166667-10 5.1333333 2.15 3.2333334 5.8333333 5.3666667 10 5.3666667z" fill="#fff" fill-rule="evenodd"/></mask><g fill-opacity=".54" fill-rule="evenodd" mask="url(#a)"><path d="m0 0h40v40h-40z"/></g></svg>