<svg width="20px" height="21px" viewBox="0 0 20 21" version="1.1" xmlns="http://www.w3.org/2000/svg" xmlns:xlink="http://www.w3.org/1999/xlink"><defs><path d="M1.58888103,10.1052632 L11.8848032,10.1052632 L6.73684211,13.3227388 L1.58888103,10.1052632 Z M13.4736842,11.0983138 L13.4736842,19.4105263 C13.4736842,19.8523541 13.115512,20.2105263 12.6736842,20.2105263 L0.8,20.2105263 C0.3581722,20.2105263 3.18064868e-14,19.8523541 3.17523785e-14,19.4105263 L3.19693832e-14,11.0983138 L6.29052721,15.0298933 C6.56359692,15.2005619 6.91008729,15.2005619 7.183157,15.0298933 L13.4736842,11.0983138 Z M15.5665527,6.65840358 L8.42105263,6.65840358 L8.42105263,4.55314042 L15.5665527,4.55314042 L13.0464343,2.03302195 L14.2373509,0.842105263 L19.0010177,5.605772 L14.2373509,10.3694387 L13.0464343,9.17852205 L15.5665527,6.65840358 Z" id="path-1"></path></defs><g id="Page-1" stroke="none" stroke-width="1" fill="none" fill-rule="evenodd"><g id="icon-/-email-outbox"><mask id="mask-2" fill="white"><use xlink:href="#path-1"></use></mask><g id="Combined-Shape" fill-rule="nonzero"></g><g id="✱-/-Color-/-Icons-/-Black-/-Inactive" mask="url(#mask-2)" fill="#000000" fill-opacity="0.54" fill-rule="evenodd"><rect id="Rectangle" x="0" y="0" width="19.9506173" height="19.9506173"></rect></g></g></g></svg>
