<svg height="32" viewBox="0 0 178 32" width="178" xmlns="http://www.w3.org/2000/svg" xmlns:xlink="http://www.w3.org/1999/xlink"><mask id="a" fill="#fff"><path d="m8.2962963 24.2963259c-4.58162963 0-8.29577778-3.7138518-8.2962963-8.2953333v-.0004445-.0002222-.0001481-.0001482c.0002963-.9774815.80014815-1.7772592 1.77777778-1.7772592s1.77748148.7997777 1.77777778 1.7772592c0 2.6182963 2.12244444 4.7407408 4.74074074 4.7407408 2.6182222 0 4.7407407-2.1224445 4.7407407-4.7407408 0-2.6175555-2.1214074-4.7394815-4.7387407-4.7405926l-.00466667.0002223c-.97777778 0-1.77777778-.8-1.77777778-1.77777782 0-.97777778.8-1.77777778 1.77777778-1.77777778 0 0 .00177778.00014815.00266667.00014815v-.00051852c4.5818518 0 8.2962963 3.71444447 8.2962963 8.29629627 0 4.581926-3.7144445 8.2962963-8.2962963 8.2962963zm45.1752889-8.2933333h-.0018519c-.0005926.8447407-.6125926 1.5992593-1.4782963 1.7507407l-10.0762222 1.7634815c.8470371.7597778 1.9660741 1.2265185 3.1977037 1.2265185.4542222 0 .8935556-.0629629 1.3097778-.1804444l.000963.0032592c.1789629-.0599259.3697037-.0937777.5682963-.0937777.9851111 0 1.7911851.8 1.7911851 1.7777777 0 .8025186-.5434074 1.4843704-1.2828888 1.7033334l.0005925.0019259c-.7566666.2234815-1.5581481.3434815-2.3879259.3434815-4.6162222 0-8.3585926-3.7144445-8.3585926-8.2962963 0-4.5818519 3.7423704-8.2962963 8.3585926-8.2962963 4.6162963 0 8.3586667 3.7144444 8.3586667 8.2962963zm-8.3586667-4.7407407c-2.2742222 0-4.1737037 1.5791111-4.6551111 3.692-.0088889.0497777-.0165185.1-.0165185.1523703 0 .490963.4008148.8888889.8954815.8888889.0571852 0 .1128889-.0064444.167037-.0166667l7.0322222-1.2307407c.4058519-.0845926.7107408-.4415556.7107408-.8695556 0-.1665185-.0485926-.3207407-.1290371-.4538518-.8516296-1.3005185-2.3256296-2.1624444-4.0048148-2.1624444zm26.6043852 4.7401629h-.0016296c.0001481.0108148.0016296.0212593.0016296.0320741v6.4855555c0 .9777778-.8 1.7777778-1.7777037 1.7777778s-1.7776296-.8-1.7776296-1.7777778v-6.4855555c0-.0108148.0013333-.0212593.0015555-.0320741h-.0015555c0-2.6182222-2.1224445-4.7405926-4.7405185-4.7405926-2.6181482 0-4.7405186 2.1223704-4.7405186 4.7405926h-.0008889v6.5188148c0 .9777778-.7998518 1.7777778-1.7776296 1.7777778-.9777037 0-1.7777037-.8-1.7777037-1.7777778v-6.7424444c0-.0659259.0043704-.130963.0114074-.1951111.2182222-4.3871852 3.844-7.87725929 8.2853334-7.87725929 4.5816296 0 8.2958518 3.71422219 8.2958518 8.29599999zm30.2222223-.0023852c0 .0575556-.001037.1148889-.002148.1721482.000518.0142222.002148.0280741.002148.0423703v6.8965926c0 .6518519-.533333 1.1851852-1.185185 1.1851852-.651926 0-1.1851854-.5333333-1.1851854-1.1851852v-.032c-.0146667-.3142222-.2725186-.5648888-.5904445-.5648888-.129037 0-.2472592.0428888-.3444444.113037-1.3888889 1.0475555-3.1173334 1.669037-4.9910371 1.669037-4.5819259 0-8.2962963-3.7144444-8.2962963-8.2962963 0-4.5819259 3.7143704-8.29629627 8.2962963-8.29629627 4.5818519 0 8.2962964 3.71437037 8.2962964 8.29629627zm-8.2962964 5.925926c3.2728148 0 5.925926-2.6531112 5.925926-5.925926s-2.6531112-5.9259259-5.925926-5.9259259-5.9259259 2.6531111-5.9259259 5.9259259 2.6531111 5.925926 5.9259259 5.925926zm83.5555634-5.925926c0 .0575556-.001037.1148889-.002149.1721482.000519.0142222.002149.0280741.002149.0423703v6.8965926c0 .6518519-.533334 1.1851852-1.185186 1.1851852-.651926 0-1.185185-.5333333-1.185185-1.1851852v-.032c-.014666-.3142222-.272518-.5648888-.590444-.5648888-.129037 0-.247259.0428888-.344445.113037-1.388889 1.0475555-3.117333 1.669037-4.991037 1.669037-4.581926 0-8.296296-3.7144444-8.296296-8.2962963 0-4.5819259 3.71437-8.29629627 8.296296-8.29629627 4.581852 0 8.296297 3.71437037 8.296297 8.29629627zm-8.296297 5.925926c3.272815 0 5.925926-2.6531112 5.925926-5.925926s-2.653111-5.9259259-5.925926-5.9259259-5.925926 2.6531111-5.925926 5.9259259 2.653111 5.925926 5.925926 5.925926zm-50.708629-2.0496963c.460889.4609629.460889 1.2151851 0 1.6761481l-.310148.3100741c-.001334.0013333-.002963.0022222-.004297.0034815l.000445.0004444c-3.239852 3.2398519-8.492815 3.2398519-11.732593 0-3.239926-3.2397778-3.239926-8.4927407 0-11.7325926 3.239778-3.23992591 8.492741-3.23992591 11.732593 0l-.001556.0014815.309556.3094815c.460963.4608889.460963 1.2151852 0 1.6761481-.460963.4608148-1.215186.4608148-1.676074 0l-.310149-.3101481c-.003259-.0033334-.005407-.0073334-.008666-.0106667-2.315037-2.30385184-6.058963-2.30096295-8.369704.0097778-2.314074 2.3142222-2.314074 6.0662963 0 8.3804444 2.314222 2.3141482 6.06637 2.3141482 8.380593 0l.00037.0003704c.001259-.0013333.002148-.002963.003482-.0042963l.310074-.3101481c.460888-.4608889 1.215111-.4608889 1.676074 0zm-91.5136003-12.17252597c4.5818518 0 8.2962963 3.71444447 8.2962963 8.29629627 0 4.581926-3.7144445 8.2962963-8.2962963 8.2962963-1.293926 0-2.5185186-.2963703-3.609926-.8246666-.0807407-.0253334-.1657037-.0408889-.2549629-.0408889-.4860741 0-.8804445.3915555-.8858519.8763703v5.9151112c0 .975037-.7977037 1.7728148-1.7727407 1.7728148-.9750371 0-1.7728148-.7977778-1.7728148-1.7728148v-14.2216297-.0001481-.0004445c0-4.5818518 3.7143703-8.29629627 8.2962963-8.29629627zm0 13.03703707c2.6182222 0 4.7407407-2.1224445 4.7407407-4.7407408 0-2.6182222-2.1225185-4.7407407-4.7407407-4.7407407-2.6182963 0-4.7407408 2.1225185-4.7407408 4.7407407 0 2.6182963 2.1224445 4.7407408 4.7407408 4.7407408zm101.9904523 1.1783852c.616296 0 1.120666.5055555 1.120666 1.1235555v.1300741c0 .618-.50437 1.1235555-1.120666 1.1235555h-.129704c-.00763 0-.014889-.001037-.022519-.0011851-4.540148-.0485926-8.206074-3.7517778-8.20837-8.3146667 0-.0014074-.000222-.0028889-.000222-.0042963v-14.78755556c0-.65370371.533481-1.1885926 1.185555-1.1885926s1.185556.53488889 1.185556 1.1885926v5.98414815c.029481.28896296.265926.51555555.558222.53096296h3.568963c.652074 0 1.185556.53488889 1.185556 1.18859259s-.533482 1.18859256-1.185556 1.18859256h-3.632889c-.262222.0425926-.466963.2565186-.494296.5242223v5.371037h.000148c0 3.2822222 2.653926 5.942963 5.927704 5.942963zm18.305844-14.21491856c.651852 0 1.185185.53333333 1.185185 1.18518518v7.11059258c0 4.582-3.714444 8.2962963-8.296296 8.2962963-4.581926 0-8.296296-3.7142963-8.296296-8.2962963h.000888c-.000074-.0038518-.000592-.0075555-.000592-.0114074v-7.0997037c0-.65185185.533259-1.18518518 1.185185-1.18518518.651852 0 1.185185.53333333 1.185185 1.18518518v7.0997037c0 .0038519-.000592.0075556-.000592.0114074h.000296c0 3.2728148 2.653111 5.9259259 5.925926 5.9259259s5.925926-2.6531111 5.925926-5.9259259v-7.11059258c0-.65185185.533333-1.18518518 1.185185-1.18518518zm11.259481-.00050371c.651704 0 1.184963.53318519 1.184963 1.18488889 0 .65170371-.533259 1.18488888-1.184963 1.18488888-.001851 0-.003777-.0002222-.005703-.0002963-3.26926.0017037-5.919111 2.6516296-5.920593 5.920963 0 .0008889.000148.0017037.000148.0026666v7.1145926c0 .6517037-.533185 1.1848889-1.184963 1.1848889-.651703 0-1.184889-.5331852-1.184889-1.1848889v-7.1145926c0-.0014814.000223-.0028888.000223-.0044444.00237-4.5780741 3.714296-8.28866667 8.293037-8.28866667v.00014815c.000963 0 .001777-.00014815.00274-.00014815zm-80.4945847-.44444444c.0273333.26762963.2322222.48162963.4943703.52414815h3.5353334c.652074 0 1.1855555.53488889 1.1855555 1.18866666 0 .65370371-.5334815 1.1885926-1.1855555 1.1885926h-3.568963c-.2922963.0153333-.5287407.2419259-.5582222.530963v12.416074c0 .6537037-.5335556 1.1885926-1.1855556 1.1885926-.6520741 0-1.1855555-.5348889-1.1855555-1.1885926v-14.78755552c0-.00140741.0002222-.00288889.0002222-.0042963.0022963-4.56288889 3.6682222-8.26607407 8.2083704-8.31466667.0076296-.00014814.0148888-.00118518.0225185-.00118518h.1297037c.6162963 0 1.1206666.50562963 1.1206666 1.12355556v.13007407c0 .618-.5043703 1.12355555-1.1206666 1.12355555h-.0618519c-2.9125926 0-5.3346666 2.106-5.8335555 4.88214815z" fill="#fff" fill-rule="evenodd"/></mask><g fill="#1984f6" fill-rule="evenodd" mask="url(#a)"><path d="m0 0h178v32h-178z"/></g></svg>