<svg width="641px" height="364px" viewBox="0 0 641 364" version="1.1" xmlns="http://www.w3.org/2000/svg" xmlns:xlink="http://www.w3.org/1999/xlink"><defs><rect id="path-1" x="0" y="0" width="640" height="512" rx="4"></rect><filter x="-8.8%" y="-9.8%" width="117.5%" height="122.7%" filterUnits="objectBoundingBox" id="filter-3"><feOffset dx="0" dy="8" in="SourceAlpha" result="shadowOffsetOuter1"></feOffset><feGaussianBlur stdDeviation="5" in="shadowOffsetOuter1" result="shadowBlurOuter1"></feGaussianBlur><feColorMatrix values="0 0 0 0 0   0 0 0 0 0   0 0 0 0 0  0 0 0 0.2 0" type="matrix" in="shadowBlurOuter1" result="shadowMatrixOuter1"></feColorMatrix><feMorphology radius="2.5" operator="dilate" in="SourceAlpha" result="shadowSpreadOuter2"></feMorphology><feOffset dx="0" dy="6" in="shadowSpreadOuter2" result="shadowOffsetOuter2"></feOffset><feGaussianBlur stdDeviation="15" in="shadowOffsetOuter2" result="shadowBlurOuter2"></feGaussianBlur><feColorMatrix values="0 0 0 0 0   0 0 0 0 0   0 0 0 0 0  0 0 0 0.12 0" type="matrix" in="shadowBlurOuter2" result="shadowMatrixOuter2"></feColorMatrix><feMorphology radius="1" operator="dilate" in="SourceAlpha" result="shadowSpreadOuter3"></feMorphology><feOffset dx="0" dy="16" in="shadowSpreadOuter3" result="shadowOffsetOuter3"></feOffset><feGaussianBlur stdDeviation="12" in="shadowOffsetOuter3" result="shadowBlurOuter3"></feGaussianBlur><feColorMatrix values="0 0 0 0 0   0 0 0 0 0   0 0 0 0 0  0 0 0 0.14 0" type="matrix" in="shadowBlurOuter3" result="shadowMatrixOuter3"></feColorMatrix><feMerge><feMergeNode in="shadowMatrixOuter1"></feMergeNode><feMergeNode in="shadowMatrixOuter2"></feMergeNode><feMergeNode in="shadowMatrixOuter3"></feMergeNode></feMerge></filter><path d="M2,0 L162,0 C163.104569,-2.02906125e-16 164,0.8954305 164,2 L164,18 C164,19.1045695 163.104569,20 162,20 L2,20 C0.8954305,20 1.3527075e-16,19.1045695 0,18 L0,2 C-1.3527075e-16,0.8954305 0.8954305,2.02906125e-16 2,0 Z" id="path-4"></path><filter x="-2.1%" y="-12.5%" width="104.3%" height="135.0%" filterUnits="objectBoundingBox" id="filter-6"><feOffset dx="0" dy="1" in="SourceAlpha" result="shadowOffsetOuter1"></feOffset><feGaussianBlur stdDeviation="1" in="shadowOffsetOuter1" result="shadowBlurOuter1"></feGaussianBlur><feColorMatrix values="0 0 0 0 0   0 0 0 0 0   0 0 0 0 0  0 0 0 0.2 0" type="matrix" in="shadowBlurOuter1" result="shadowMatrixOuter1"></feColorMatrix><feMorphology radius="0.5" operator="erode" in="SourceAlpha" result="shadowSpreadOuter2"></feMorphology><feOffset dx="0" dy="1" in="shadowSpreadOuter2" result="shadowOffsetOuter2"></feOffset><feGaussianBlur stdDeviation="0.5" in="shadowOffsetOuter2" result="shadowBlurOuter2"></feGaussianBlur><feColorMatrix values="0 0 0 0 0   0 0 0 0 0   0 0 0 0 0  0 0 0 0.12 0" type="matrix" in="shadowBlurOuter2" result="shadowMatrixOuter2"></feColorMatrix><feOffset dx="0" dy="1" in="SourceAlpha" result="shadowOffsetOuter3"></feOffset><feGaussianBlur stdDeviation="0.5" in="shadowOffsetOuter3" result="shadowBlurOuter3"></feGaussianBlur><feColorMatrix values="0 0 0 0 0   0 0 0 0 0   0 0 0 0 0  0 0 0 0.14 0" type="matrix" in="shadowBlurOuter3" result="shadowMatrixOuter3"></feColorMatrix><feMerge><feMergeNode in="shadowMatrixOuter1"></feMergeNode><feMergeNode in="shadowMatrixOuter2"></feMergeNode><feMergeNode in="shadowMatrixOuter3"></feMergeNode></feMerge></filter><path d="M6,2 C3.5,2 1.365,3.555 0.5,5.75 C1.365,7.945 3.5,9.5 6,9.5 C8.5,9.5 10.635,7.945 11.5,5.75 C10.635,3.555 8.5,2 6,2 Z M6,8.25 C4.62,8.25 3.5,7.13 3.5,5.75 C3.5,4.37 4.62,3.25 6,3.25 C7.38,3.25 8.5,4.37 8.5,5.75 C8.5,7.13 7.38,8.25 6,8.25 Z M6,4.25 C5.17,4.25 4.5,4.92 4.5,5.75 C4.5,6.58 5.17,7.25 6,7.25 C6.83,7.25 7.5,6.58 7.5,5.75 C7.5,4.92 6.83,4.25 6,4.25 Z" id="path-7"></path><path d="M2,0 L162,0 C163.104569,-2.02906125e-16 164,0.8954305 164,2 L164,18 C164,19.1045695 163.104569,20 162,20 L2,20 C0.8954305,20 1.3527075e-16,19.1045695 0,18 L0,2 C-1.3527075e-16,0.8954305 0.8954305,2.02906125e-16 2,0 Z" id="path-9"></path><filter x="-2.1%" y="-12.5%" width="104.3%" height="135.0%" filterUnits="objectBoundingBox" id="filter-11"><feOffset dx="0" dy="1" in="SourceAlpha" result="shadowOffsetOuter1"></feOffset><feGaussianBlur stdDeviation="1" in="shadowOffsetOuter1" result="shadowBlurOuter1"></feGaussianBlur><feColorMatrix values="0 0 0 0 0   0 0 0 0 0   0 0 0 0 0  0 0 0 0.2 0" type="matrix" in="shadowBlurOuter1" result="shadowMatrixOuter1"></feColorMatrix><feMorphology radius="0.5" operator="erode" in="SourceAlpha" result="shadowSpreadOuter2"></feMorphology><feOffset dx="0" dy="1" in="shadowSpreadOuter2" result="shadowOffsetOuter2"></feOffset><feGaussianBlur stdDeviation="0.5" in="shadowOffsetOuter2" result="shadowBlurOuter2"></feGaussianBlur><feColorMatrix values="0 0 0 0 0   0 0 0 0 0   0 0 0 0 0  0 0 0 0.12 0" type="matrix" in="shadowBlurOuter2" result="shadowMatrixOuter2"></feColorMatrix><feOffset dx="0" dy="1" in="SourceAlpha" result="shadowOffsetOuter3"></feOffset><feGaussianBlur stdDeviation="0.5" in="shadowOffsetOuter3" result="shadowBlurOuter3"></feGaussianBlur><feColorMatrix values="0 0 0 0 0   0 0 0 0 0   0 0 0 0 0  0 0 0 0.14 0" type="matrix" in="shadowBlurOuter3" result="shadowMatrixOuter3"></feColorMatrix><feMerge><feMergeNode in="shadowMatrixOuter1"></feMergeNode><feMergeNode in="shadowMatrixOuter2"></feMergeNode><feMergeNode in="shadowMatrixOuter3"></feMergeNode></feMerge></filter><path d="M6,1 C3.24,1 1,3.24 1,6 C1,8.76 3.24,11 6,11 C8.76,11 11,8.76 11,6 C11,3.24 8.76,1 6,1 Z M6.5,8.5 L5.5,8.5 L5.5,5.5 L6.5,5.5 L6.5,8.5 Z M6.5,4.5 L5.5,4.5 L5.5,3.5 L6.5,3.5 L6.5,4.5 Z" id="path-12"></path><path d="M6.75,1.5 C4.265,1.5 2.25,3.515 2.25,6 L0.75,6 L2.695,7.945 L2.73,8.015 L4.75,6 L3.25,6 C3.25,4.065 4.815,2.5 6.75,2.5 C8.685,2.5 10.25,4.065 10.25,6 C10.25,7.935 8.685,9.5 6.75,9.5 C5.785,9.5 4.91,9.105 4.28,8.47 L3.57,9.18 C4.385,9.995 5.505,10.5 6.75,10.5 C9.235,10.5 11.25,8.485 11.25,6 C11.25,3.515 9.235,1.5 6.75,1.5 Z M6.25,4 L6.25,6.5 L8.375,7.76 L8.76,7.12 L7,6.075 L7,4 L6.25,4 Z" id="path-14"></path><rect id="path-16" x="0" y="0" width="64" height="36"></rect><path d="M9.5,1.5 L2.5,1.5 C1.95,1.5 1.5,1.95 1.5,2.5 L1.5,9.5 C1.5,10.05 1.95,10.5 2.5,10.5 L9.5,10.5 C10.05,10.5 10.5,10.05 10.5,9.5 L10.5,2.5 C10.5,1.95 10.05,1.5 9.5,1.5 Z M9.5,9.5 L2.5,9.5 L2.5,7.21 L2.995,7.705 L4.995,5.705 L6.995,7.705 L8.995,5.71 L9.5,6.215 L9.5,9.5 Z M9.5,4.795 L8.995,4.29 L6.995,6.295 L4.995,4.295 L2.995,6.295 L2.5,5.795 L2.5,2.5 L9.5,2.5 L9.5,4.795 Z" id="path-18"></path></defs><g id="Page-1" stroke="none" stroke-width="1" fill="none" fill-rule="evenodd"><g id="dialog-logo-empresa" transform="translate(-319.000000, -240.000000)"><g id="Image-Treatments-/-Tonal-/-Black" fill="#000000" opacity="0.32"><rect id="Surface" x="0" y="0" width="1280" height="800"></rect></g><g id="dialog" transform="translate(320.000000, 144.000000)"><mask id="mask-2" fill="white"><use xlink:href="#path-1"></use></mask><g id="Rectangle"><use fill="black" fill-opacity="1" filter="url(#filter-3)" xlink:href="#path-1"></use><use fill="#FFFFFF" fill-rule="evenodd" xlink:href="#path-1"></use></g><g id="Group-3" mask="url(#mask-2)"><g transform="translate(0.000000, 96.000000)"><rect id="Rectangle" fill="#1984F6" fill-rule="evenodd" x="0" y="0" width="640" height="364"></rect><g id="Buttons-/-Contained-/-Enabled" fill="none" transform="translate(238.000000, 120.000000)"><mask id="mask-5" fill="white"><use xlink:href="#path-4"></use></mask><g id="Surface"><use fill="black" fill-opacity="1" filter="url(#filter-6)" xlink:href="#path-4"></use><use fill="#FAFAFA" fill-rule="evenodd" xlink:href="#path-4"></use></g><g id="✱-/-Color-/-Surface-/-Base" mask="url(#mask-5)" fill="#FFFFFF" fill-rule="evenodd"><rect id="Rectangle-13" x="0" y="0" width="164" height="20"></rect></g><g id="✱-/-Text-/-Button-/-Primary-/-On-Surface-/-Center" mask="url(#mask-5)" font-family="CircularStd-Medium, Circular Std" font-size="7" font-weight="400" line-spacing="8"><g transform="translate(8.000000, 6.000000)" id="Button"><text><tspan x="43.151" y="7" fill="#1D72E2">GENERAR BOLETA</tspan></text></g></g></g><g id="Group-3-Copy-2" stroke-width="1" fill="none" fill-rule="evenodd" transform="translate(234.000000, 172.000000)"><rect id="Rectangle" stroke-opacity="0.4" stroke="#FFFFFF" stroke-width="0.5" stroke-linecap="square" fill-rule="nonzero" x="-0.25" y="-0.25" width="172.5" height="28.5" rx="4"></rect><text id="Detalles-del-documen" font-family="CircularStd-Book, Circular Std" font-size="8" font-weight="300" fill="#FFFFFF"><tspan x="43.57" y="8">Detalles del documento</tspan></text><g id="icon/action/visibility_24px" transform="translate(12.000000, 8.000000)"><mask id="mask-8" fill="white"><use xlink:href="#path-7"></use></mask><g fill-rule="nonzero"></g><g id="✱-/-Color-/-Icons-/-White-/-Inactive" mask="url(#mask-8)" fill="#FFFFFF" fill-opacity="0.7" fill-rule="evenodd"><rect id="Rectangle" x="0" y="0" width="11.8823529" height="11.8823529"></rect></g></g></g><g id="Buttons-/-Contained-/-Enabled" fill="none" transform="translate(238.000000, 144.000000)"><mask id="mask-10" fill="white"><use xlink:href="#path-9"></use></mask><g id="Surface"><use fill="black" fill-opacity="1" filter="url(#filter-11)" xlink:href="#path-9"></use><use fill="#FAFAFA" fill-rule="evenodd" xlink:href="#path-9"></use></g><g id="✱-/-Color-/-Surface-/-Base" mask="url(#mask-10)" fill="#FFFFFF" fill-rule="evenodd"><rect id="Rectangle-13" x="0" y="0" width="164" height="20"></rect></g><g id="✱-/-Text-/-Button-/-Primary-/-On-Surface-/-Center" mask="url(#mask-10)" font-family="CircularStd-Medium, Circular Std" font-size="7" font-weight="400" line-spacing="8"><g transform="translate(8.000000, 6.000000)" id="Button"><text><tspan x="40.519" y="7" fill="#1D72E2">GENERAR FACTURA</tspan></text></g></g></g><g id="alert-copy" stroke-width="1" fill="none" fill-rule="evenodd" transform="translate(234.000000, 208.000000)"><rect id="bg" fill="#FFFFFF" x="0" y="0" width="172" height="32" rx="2"></rect><path d="M2,0 L170,0 C171.104569,-2.02906125e-16 172,0.8954305 172,2 L172,30 C172,31.1045695 171.104569,32 170,32 L2,32 C0.8954305,32 1.3527075e-16,31.1045695 0,30 L0,2 C-1.3527075e-16,0.8954305 0.8954305,2.02906125e-16 2,0 Z" id="color" fill="#2196F3" opacity="0.08"></path><text id="Body-1" font-family="CircularStd-Book, Circular Std" font-size="7" font-weight="300" line-spacing="10"><tspan x="32" y="13.5" fill="#1984F6">Se enviará una copia del documento a: </tspan><tspan x="32" y="23.5" fill="#1D72E2">mail@email.com</tspan></text><g id="icon/action/info_24px" transform="translate(12.000000, 6.000000)"><mask id="mask-13" fill="white"><use xlink:href="#path-12"></use></mask><g fill-rule="nonzero"></g><g id="✱-/-Color-/-Icons-/-Primary-or-Secondary" mask="url(#mask-13)" fill="#1984F6" fill-rule="evenodd"><g id="✱-/-Color-/-Primary-/-Main"><g id="✱-/-Color-/-Primary-/-600"><rect id="Rectangle-13" x="0" y="0" width="12" height="12"></rect></g></g></g></g></g><text id="Selecciona-tu-prefer" fill="none" font-family="CircularStd-Book, Circular Std" font-size="8" font-weight="300" line-spacing="12"><tspan x="238" y="89" fill="#FFFFFF">Selecciona tu preferencia para la compra que </tspan><tspan x="238" y="101" fill="#FFFFFF">realizaste en EMPRESA DE EJEMPLO SPA</tspan></text><text id="Obtén-tu-documento-t" fill="none" font-family="CircularStd-Book, Circular Std" font-size="12" font-weight="300" line-spacing="16"><tspan x="238" y="53.5" fill="#FFFFFF">Obtén tu documento </tspan><tspan x="238" y="69.5" fill="#FFFFFF">tributario</tspan></text><text id="Body-1" fill="none" font-family="CircularStd-Book, Circular Std" font-size="8" font-weight="300" line-spacing="10"><tspan x="493.46" y="18" fill="#FFFFFF">Orden de compra Nº XXXXX</tspan></text><rect id="Rectangle" fill="#FAFAFA" fill-rule="evenodd" x="492.5" y="20" width="103" height="1"></rect><g id="icon/action/history_24px" fill="none" transform="translate(616.000000, 10.000000)"><mask id="mask-15" fill="white"><use xlink:href="#path-14"></use></mask><g fill-rule="nonzero"></g><g id="✱-/-Color-/-Icons-/-White-/-Active" mask="url(#mask-15)" fill="#FFFFFF" fill-rule="evenodd"><rect id="Rectangle-13" x="0" y="0" width="11.8823529" height="11.8823529"></rect></g></g><g id="Group-2" stroke-width="1" fill="none" fill-rule="evenodd" transform="translate(12.000000, 12.000000)"><mask id="mask-17" fill="white"><use xlink:href="#path-16"></use></mask><use id="Rectangle" fill="#FAFAFA" fill-rule="nonzero" xlink:href="#path-16"></use><g id="icon/image/broken_image_24px" mask="url(#mask-17)"><g transform="translate(26.000000, 12.000000)"><mask id="mask-19" fill="white"><use xlink:href="#path-18"></use></mask><g id="icon/image/broken_image_24px" stroke="none" fill="none" fill-rule="nonzero"></g><g id="✱-/-Color-/-Icons-/-Black-/-Inactive" stroke="none" fill="none" mask="url(#mask-19)" fill-opacity="0.54" fill-rule="evenodd"><rect id="Rectangle" fill="#000000" x="0" y="0" width="11.8823529" height="11.8823529"></rect></g></g></g></g></g></g><g id="#properties-top-0E4BFC9E-9025-4A88-8208-CA1B297E0CD8" mask="url(#mask-2)"><g transform="translate(24.000000, 414.000000)"><rect id="Combined-Shape" fill="#F5A623" fill-rule="evenodd" x="0" y="0" width="91" height="22" rx="2"></rect><text id="Color:-#1984F6" fill="none" font-family="HelveticaNeue, Helvetica Neue" font-size="12" font-weight="normal"><tspan x="4" y="15" fill="#FFFFFF">Color: #1984F6</tspan></text></g></g></g><g id="Group-4" transform="translate(332.000000, 251.000000)"><g id="#height-right-59CD1664-B511-44D6-9143-C3019C153E6D" transform="translate(65.000000, 0.000000)"><rect id="line" fill="#FF5500" x="2" y="0" width="1" height="36"></rect><rect id="start" fill="#FF5500" x="0" y="0" width="5" height="1"></rect><rect id="end" fill="#FF5500" x="0" y="35" width="5" height="1"></rect><rect id="box" fill="#FF5500" x="9" y="7" width="35" height="22" rx="2"></rect><rect id="arrow" fill="#FF5500" transform="translate(10.000000, 18.000000) rotate(-45.000000) translate(-10.000000, -18.000000) " x="7" y="15" width="6" height="6"></rect><text id="72px" font-family="HelveticaNeue, Helvetica Neue" font-size="12" font-weight="normal" fill="#FFFFFF"><tspan x="13" y="22">72px</tspan></text></g><g id="#width-bottom-59CD1664-B511-44D6-9143-C3019C153E6D" transform="translate(0.000000, 37.000000)"><rect id="line" fill="#FF5500" x="0" y="2" width="64" height="1"></rect><rect id="start" fill="#FF5500" x="0" y="0" width="1" height="5"></rect><rect id="end" fill="#FF5500" x="63" y="0" width="1" height="5"></rect><rect id="box" fill="#FF5500" x="11" y="9" width="42" height="22" rx="2"></rect><text id="128px" font-family="HelveticaNeue, Helvetica Neue" font-size="12" font-weight="normal" fill="#FFFFFF"><tspan x="15" y="24">128px</tspan></text></g><g id="#properties-right-59CD1664-B511-44D6-9143-C3019C153E6D" transform="translate(64.000000, 0.000000)"></g></g></g></g></svg>
