<svg height="24" viewBox="0 0 24 24" width="24" xmlns="http://www.w3.org/2000/svg" xmlns:xlink="http://www.w3.org/1999/xlink"><mask id="a" fill="#fff"><path d="m19 3h-14c-1.1 0-2 .9-2 2v7c0 1.1.9 2 2 2h14c1.1 0 2-.9 2-2v-7c0-1.1-.9-2-2-2zm-14 7h3.13c.21.78.67 1.47 1.27 2h-4.4zm14 2h-4.4c.6-.53 1.06-1.22 1.27-2h3.13zm0-4h-5v1c0 1.07-.93 2-2 2s-2-.93-2-2v-1h-5v-3h14zm-2 7h-3v1c0 .47-.19.9-.48 1.25-.37.45-.92.75-1.52.75s-1.15-.3-1.52-.75c-.29-.35-.48-.78-.48-1.25v-1h-7v4c0 1.1.9 2 2 2h14c1.1 0 2-.9 2-2v-4zm-12 2h3.13c.02.09.06.17.09.25.24.68.65 1.28 1.18 1.75h-4.4zm14 2h-4.4c.54-.47.95-1.07 1.18-1.75.03-.08.07-.16.09-.25h3.13z" fill="#fff" fill-rule="evenodd"/></mask><g fill-opacity=".54" fill-rule="evenodd" mask="url(#a)"><path d="m0 0h24v24h-24z"/></g></svg>